<svg width="30" height="30" viewBox="0 0 30 30" fill="none" xmlns="http://www.w3.org/2000/svg">
<path d="M30 15C30 23.2843 23.2843 30 15 30C6.71573 30 0 23.2843 0 15C0 6.71573 6.71573 0 15 0C23.2843 0 30 6.71573 30 15Z" fill="white"/>
<path fill-rule="evenodd" clip-rule="evenodd" d="M15 27.7083C22.0186 27.7083 27.7083 22.0186 27.7083 15C27.7083 7.98138 22.0186 2.29167 15 2.29167C7.98138 2.29167 2.29167 7.98138 2.29167 15C2.29167 22.0186 7.98138 27.7083 15 27.7083ZM15 30C23.2843 30 30 23.2843 30 15C30 6.71573 23.2843 0 15 0C6.71573 0 0 6.71573 0 15C0 23.2843 6.71573 30 15 30Z" fill="#C6CDDE"/>
<path fill-rule="evenodd" clip-rule="evenodd" d="M30 14.7368H0C0.111476 6.57895 6.78451 0 15 0C23.2155 0 29.8885 6.57895 30 14.7368Z" fill="url(#paint0_linear_2_862)"/>
<path fill-rule="evenodd" clip-rule="evenodd" d="M30 15.7895L-1.44627e-09 15.7895L0 14.2105L30 14.2105L30 15.7895Z" fill="#4B5265"/>
<path d="M20 15C20 17.7614 17.7614 20 15 20C12.2386 20 10 17.7614 10 15C10 12.2386 12.2386 10 15 10C17.7614 10 20 12.2386 20 15Z" fill="white"/>
<path fill-rule="evenodd" clip-rule="evenodd" d="M15 18.3673C16.8597 18.3673 18.3673 16.8597 18.3673 15C18.3673 13.1403 16.8597 11.6327 15 11.6327C13.1403 11.6327 11.6327 13.1403 11.6327 15C11.6327 16.8597 13.1403 18.3673 15 18.3673ZM15 20C17.7614 20 20 17.7614 20 15C20 12.2386 17.7614 10 15 10C12.2386 10 10 12.2386 10 15C10 17.7614 12.2386 20 15 20Z" fill="#4B5265"/>
<defs>
<linearGradient id="paint0_linear_2_862" x1="15" y1="0" x2="15" y2="14.7368" gradientUnits="userSpaceOnUse">
<stop stop-color="#E36F6F"/>
<stop offset="0.9999" stop-color="#FF4747"/>
<stop offset="1" stop-color="#FF6363"/>
</linearGradient>
</defs>
</svg>
