<svg width="200" height="53" viewBox="0 0 200 53" fill="none" xmlns="http://www.w3.org/2000/svg">
<path d="M72.635 21.92C72.635 23.1567 72.3433 24.3233 71.76 25.42C71.1767 26.5167 70.2433 27.415 68.96 28.115C67.6767 28.7917 66.0317 29.13 64.025 29.13H59.615V39H55.625V14.675H64.025C65.8917 14.675 67.4667 15.0017 68.75 15.655C70.0567 16.285 71.025 17.1483 71.655 18.245C72.3083 19.3417 72.635 20.5667 72.635 21.92ZM64.025 25.875C65.5417 25.875 66.6733 25.5367 67.42 24.86C68.1667 24.16 68.54 23.18 68.54 21.92C68.54 19.26 67.035 17.93 64.025 17.93H59.615V25.875H64.025ZM84.8054 39.315C82.9854 39.315 81.3404 38.9067 79.8704 38.09C78.4004 37.25 77.2454 36.0833 76.4054 34.59C75.5654 33.0733 75.1454 31.3233 75.1454 29.34C75.1454 27.38 75.5771 25.6417 76.4404 24.125C77.3038 22.6083 78.4821 21.4417 79.9754 20.625C81.4688 19.8083 83.1371 19.4 84.9804 19.4C86.8238 19.4 88.4921 19.8083 89.9854 20.625C91.4788 21.4417 92.6571 22.6083 93.5204 24.125C94.3838 25.6417 94.8154 27.38 94.8154 29.34C94.8154 31.3 94.3721 33.0383 93.4854 34.555C92.5988 36.0717 91.3854 37.25 89.8454 38.09C88.3288 38.9067 86.6488 39.315 84.8054 39.315ZM84.8054 35.85C85.8321 35.85 86.7888 35.605 87.6754 35.115C88.5854 34.625 89.3204 33.89 89.8804 32.91C90.4404 31.93 90.7204 30.74 90.7204 29.34C90.7204 27.94 90.4521 26.7617 89.9154 25.805C89.3788 24.825 88.6671 24.09 87.7804 23.6C86.8938 23.11 85.9371 22.865 84.9104 22.865C83.8838 22.865 82.9271 23.11 82.0404 23.6C81.1771 24.09 80.4888 24.825 79.9754 25.805C79.4621 26.7617 79.2054 27.94 79.2054 29.34C79.2054 31.4167 79.7304 33.0267 80.7804 34.17C81.8538 35.29 83.1954 35.85 84.8054 35.85ZM106.39 29.375L115.28 39H109.89L102.75 30.705V39H98.7598V13.1H102.75V28.15L109.75 19.715H115.28L106.39 29.375ZM135.815 28.885C135.815 29.6083 135.768 30.2617 135.675 30.845H120.94C121.056 32.385 121.628 33.6217 122.655 34.555C123.681 35.4883 124.941 35.955 126.435 35.955C128.581 35.955 130.098 35.0567 130.985 33.26H135.29C134.706 35.0333 133.645 36.4917 132.105 37.635C130.588 38.755 128.698 39.315 126.435 39.315C124.591 39.315 122.935 38.9067 121.465 38.09C120.018 37.25 118.875 36.0833 118.035 34.59C117.218 33.0733 116.81 31.3233 116.81 29.34C116.81 27.3567 117.206 25.6183 118 24.125C118.816 22.6083 119.948 21.4417 121.395 20.625C122.865 19.8083 124.545 19.4 126.435 19.4C128.255 19.4 129.876 19.7967 131.3 20.59C132.723 21.3833 133.831 22.5033 134.625 23.95C135.418 25.3733 135.815 27.0183 135.815 28.885ZM131.65 27.625C131.626 26.155 131.101 24.9767 130.075 24.09C129.048 23.2033 127.776 22.76 126.26 22.76C124.883 22.76 123.705 23.2033 122.725 24.09C121.745 24.9533 121.161 26.1317 120.975 27.625H131.65ZM138.411 29.27C138.411 27.3333 138.808 25.6183 139.601 24.125C140.418 22.6317 141.515 21.4767 142.891 20.66C144.291 19.82 145.843 19.4 147.546 19.4C148.806 19.4 150.043 19.68 151.256 20.24C152.493 20.7767 153.473 21.5 154.196 22.41V13.1H158.221V39H154.196V36.095C153.543 37.0283 152.633 37.7983 151.466 38.405C150.323 39.0117 149.005 39.315 147.511 39.315C145.831 39.315 144.291 38.895 142.891 38.055C141.515 37.1917 140.418 36.0017 139.601 34.485C138.808 32.945 138.411 31.2067 138.411 29.27ZM154.196 29.34C154.196 28.01 153.916 26.855 153.356 25.875C152.82 24.895 152.108 24.1483 151.221 23.635C150.335 23.1217 149.378 22.865 148.351 22.865C147.325 22.865 146.368 23.1217 145.481 23.635C144.595 24.125 143.871 24.86 143.311 25.84C142.775 26.7967 142.506 27.94 142.506 29.27C142.506 30.6 142.775 31.7667 143.311 32.77C143.871 33.7733 144.595 34.5433 145.481 35.08C146.391 35.5933 147.348 35.85 148.351 35.85C149.378 35.85 150.335 35.5933 151.221 35.08C152.108 34.5667 152.82 33.82 153.356 32.84C153.916 31.8367 154.196 30.67 154.196 29.34ZM181.137 28.885C181.137 29.6083 181.09 30.2617 180.997 30.845H166.262C166.379 32.385 166.95 33.6217 167.977 34.555C169.004 35.4883 170.264 35.955 171.757 35.955C173.904 35.955 175.42 35.0567 176.307 33.26H180.612C180.029 35.0333 178.967 36.4917 177.427 37.635C175.91 38.755 174.02 39.315 171.757 39.315C169.914 39.315 168.257 38.9067 166.787 38.09C165.34 37.25 164.197 36.0833 163.357 34.59C162.54 33.0733 162.132 31.3233 162.132 29.34C162.132 27.3567 162.529 25.6183 163.322 24.125C164.139 22.6083 165.27 21.4417 166.717 20.625C168.187 19.8083 169.867 19.4 171.757 19.4C173.577 19.4 175.199 19.7967 176.622 20.59C178.045 21.3833 179.154 22.5033 179.947 23.95C180.74 25.3733 181.137 27.0183 181.137 28.885ZM176.972 27.625C176.949 26.155 176.424 24.9767 175.397 24.09C174.37 23.2033 173.099 22.76 171.582 22.76C170.205 22.76 169.027 23.2033 168.047 24.09C167.067 24.9533 166.484 26.1317 166.297 27.625H176.972ZM193.323 29.235L199.553 39H195.038L190.873 32.455L186.953 39H182.788L189.018 29.515L182.788 19.715H187.303L191.468 26.26L195.388 19.715H199.553L193.323 29.235Z" fill="#4B5265"/>
<path d="M30 27C30 35.2843 23.2843 42 15 42C6.71573 42 0 35.2843 0 27C0 18.7157 6.71573 12 15 12C23.2843 12 30 18.7157 30 27Z" fill="white"/>
<path fill-rule="evenodd" clip-rule="evenodd" d="M15 39.7083C22.0186 39.7083 27.7083 34.0186 27.7083 27C27.7083 19.9814 22.0186 14.2917 15 14.2917C7.98138 14.2917 2.29167 19.9814 2.29167 27C2.29167 34.0186 7.98138 39.7083 15 39.7083ZM15 42C23.2843 42 30 35.2843 30 27C30 18.7157 23.2843 12 15 12C6.71573 12 0 18.7157 0 27C0 35.2843 6.71573 42 15 42Z" fill="#8991A3"/>
<path fill-rule="evenodd" clip-rule="evenodd" d="M30 26.7368H0C0.111476 18.579 6.78451 12 15 12C23.2155 12 29.8885 18.579 30 26.7368Z" fill="url(#paint0_linear_2_848)"/>
<path fill-rule="evenodd" clip-rule="evenodd" d="M30 27.7895L-1.44627e-09 27.7895L0 26.2105L30 26.2105L30 27.7895Z" fill="#4B5265"/>
<path d="M20 27C20 29.7614 17.7614 32 15 32C12.2386 32 10 29.7614 10 27C10 24.2386 12.2386 22 15 22C17.7614 22 20 24.2386 20 27Z" fill="white"/>
<path fill-rule="evenodd" clip-rule="evenodd" d="M15 30.3673C16.8597 30.3673 18.3673 28.8597 18.3673 27C18.3673 25.1403 16.8597 23.6327 15 23.6327C13.1403 23.6327 11.6327 25.1403 11.6327 27C11.6327 28.8597 13.1403 30.3673 15 30.3673ZM15 32C17.7614 32 20 29.7614 20 27C20 24.2386 17.7614 22 15 22C12.2386 22 10 24.2386 10 27C10 29.7614 12.2386 32 15 32Z" fill="#4B5265"/>
<defs>
<linearGradient id="paint0_linear_2_848" x1="15" y1="12" x2="15" y2="26.7368" gradientUnits="userSpaceOnUse">
<stop stop-color="#E36F6F"/>
<stop offset="0.9999" stop-color="#FF4747"/>
<stop offset="1" stop-color="#FF6363"/>
</linearGradient>
</defs>
</svg>
